<svg width="128" height="128" viewBox="0 0 128 128" fill="none" xmlns="http://www.w3.org/2000/svg">
<path d="M99.555 2.85467C94.6782 3.72507 89.4302 6.37467 83.7982 10.7907C81.4174 12.6595 79.1646 14.6435 77.027 16.7043C77.1934 16.6915 77.3598 16.6531 77.5134 16.6403C77.3598 16.6403 77.1934 16.6787 77.027 16.7043C72.867 20.7107 69.1934 25.1011 65.955 29.8499C65.635 30.3235 65.3022 30.7843 64.995 31.2707L61.3726 36.8899L59.2734 40.1411C59.1582 40.2819 58.8382 40.7683 58.339 41.5107C58.2878 41.6003 58.2366 41.6771 58.1726 41.7667C58.0702 41.8051 57.9678 41.8435 57.8654 41.8819C56.2654 42.4963 54.7166 43.1107 53.2062 43.7251C51.9262 44.2499 50.6846 44.7619 49.4686 45.2739C43.2734 47.8851 38.0254 50.4067 33.6862 52.8131C30.2558 54.7203 27.4014 56.5635 25.1358 58.3427C15.3054 66.0739 9.94215 77.7219 9.07175 93.2739C8.44455 104.064 10.4798 112.448 15.1774 118.426C18.6078 122.791 23.0878 124.698 28.643 124.16C24.8286 121.242 21.7822 118.336 19.491 115.418C13.3726 107.635 10.8894 99.3667 12.003 90.6371C13.1294 81.9075 17.6478 74.4323 25.5454 68.2371C29.1934 65.3699 34.339 62.3491 40.9182 59.1747L55.3566 52.7747L58.9022 51.2131L59.043 51.1619L61.0526 50.3299L76.5534 43.9427C78.1406 43.3027 82.0318 41.5747 88.2654 38.7587C89.2766 38.3107 90.3262 37.8243 91.4526 37.3123L98.0702 34.3171L100.208 33.3955C100.553 32.2691 101.104 31.0019 101.846 29.6067C102.576 28.2371 103.51 26.7395 104.637 25.1267C104.381 24.7811 104.137 24.4483 103.869 24.1027C103.536 23.6675 103.19 23.2707 102.845 22.8739C103.19 23.2707 103.536 23.6675 103.869 24.0899C104.137 24.4355 104.393 24.7683 104.649 25.1267C104.982 24.6403 105.328 24.1539 105.699 23.6291C105.968 23.2579 106.249 22.8867 106.544 22.5027C112.009 15.2195 113.302 9.72827 110.397 6.02907C108.054 3.04667 104.445 1.98427 99.5678 2.85467H99.555ZM99.3374 25.7411C98.8382 25.1011 98.3262 24.5123 97.7886 23.9491C98.3134 24.5123 98.8382 25.1139 99.3374 25.7411ZM108.169 14.2595C107.133 16.4099 105.353 18.4707 102.845 20.4291V20.4547C102.461 20.7491 102 21.0819 101.513 21.4019C101.897 21.7987 102.281 22.2083 102.653 22.6307C102.281 22.2083 101.897 21.7987 101.513 21.4147C100.477 22.1187 99.1838 22.9123 97.6606 23.7827C94.7166 25.4723 90.915 27.4563 86.1534 29.7475C84.7454 30.4387 83.3374 31.0915 81.955 31.7315C81.4174 32.0003 80.8542 32.2563 80.3166 32.4995C80.483 32.5635 80.6238 32.6275 80.803 32.7043C80.5854 32.6403 80.3806 32.6147 80.1758 32.5635C74.0446 35.3667 68.2974 37.7475 62.9342 39.6803C63.5102 38.6563 64.1118 37.6579 64.7262 36.6595C65.4558 35.4691 66.1982 34.3171 66.979 33.1779C68.0542 31.6291 69.1806 30.1315 70.3454 28.6723C73.9166 24.2051 77.9486 20.1731 82.4286 16.5763C81.9422 16.5379 81.443 16.5379 80.9438 16.5379C81.4302 16.5379 81.9294 16.5379 82.4158 16.5763C82.6334 16.3971 82.8382 16.2179 83.0558 16.0387C84.0926 15.2323 85.1166 14.4899 86.1406 13.7859C85.731 13.6963 85.3214 13.6067 84.8862 13.5299C85.539 13.3891 86.2046 13.3123 86.883 13.2739C90.723 10.7395 94.5118 8.97307 98.2622 7.96187C103.254 6.61787 106.595 7.04027 108.285 9.20347C109.245 10.4195 109.193 12.1091 108.157 14.2595H108.169Z" fill="#F4496F"/>
<path d="M77.4243 92.0314V69.657C82.5443 69.657 85.1171 67.6986 85.1171 63.7818C85.1171 60.1978 83.1587 58.4058 79.2419 58.4058C75.3251 58.4058 73.3027 60.8634 73.3027 65.7786V121.523H47.9331V68.4026C47.9331 62.8986 48.4835 58.393 49.5843 54.873C50.6851 51.353 52.5795 48.0762 55.2419 45.0298C58.2371 41.6506 61.9875 38.9882 66.4931 37.0298C70.9987 35.0714 75.6451 34.0986 80.4323 34.0986C89.0979 34.0986 96.3811 37.017 102.282 42.8538C108.183 48.6906 111.127 55.9226 111.127 64.537C111.127 73.1514 108.477 79.705 103.191 84.9146C98.3523 89.7018 91.0691 92.1082 81.3155 92.1082L77.4371 92.0442L77.4243 92.0314Z" fill="#E1234D"/>
</svg>
